<?xml version="1.0" encoding="UTF-8" standalone="no"?>
<!-- Created with Inkscape (http://www.inkscape.org/) -->

<svg
   width="151.23557mm"
   height="13.890625mm"
   viewBox="0 0 151.23557 13.890625"
   version="1.1"
   id="svg5"
   xml:space="preserve"
   inkscape:version="1.2.2 (b0a8486541, 2022-12-01)"
   sodipodi:docname="longshot-city-logo.svg"
   xmlns:inkscape="http://www.inkscape.org/namespaces/inkscape"
   xmlns:sodipodi="http://sodipodi.sourceforge.net/DTD/sodipodi-0.dtd"
   xmlns="http://www.w3.org/2000/svg"
   xmlns:svg="http://www.w3.org/2000/svg"><sodipodi:namedview
     id="namedview7"
     pagecolor="#ffffff"
     bordercolor="#999999"
     borderopacity="1"
     inkscape:showpageshadow="0"
     inkscape:pageopacity="0"
     inkscape:pagecheckerboard="0"
     inkscape:deskcolor="#d1d1d1"
     inkscape:document-units="mm"
     showgrid="false"
     inkscape:zoom="0.78216891"
     inkscape:cx="26.209173"
     inkscape:cy="460.25864"
     inkscape:window-width="1920"
     inkscape:window-height="1018"
     inkscape:window-x="0"
     inkscape:window-y="0"
     inkscape:window-maximized="1"
     inkscape:current-layer="layer1" /><defs
     id="defs2" /><g
     inkscape:label="Layer 1"
     inkscape:groupmode="layer"
     id="layer1"
     transform="translate(-21.617381,-26.753223)"><path
       fill-rule="nonzero"
       fill="#231f20"
       fill-opacity="1"
       d="m 26.746437,36.650293 v 2.432238 l 3.742751,0.323839 0.354156,-3.566363 -2.020204,-0.16123 z m -4.922353,-9.18049 0.0441,2.947624 1.178223,0.07304 -0.08819,5.791894 -1.281576,0.250803 -0.05926,2.607249 4.303614,-0.01378 0.206705,-2.976562 0.117134,-2.579688 -0.206706,-3.079915 1.371148,-0.2949 -0.02894,-2.87321 z m 0,0"
       id="path396"
       style="stroke-width:0.352778" /><path
       fill-rule="nonzero"
       fill="#231f20"
       fill-opacity="1"
       d="m 43.397274,30.151465 0.766187,4.508941 -1.842435,3.59668 -3.418914,0.913639 -0.279742,-3.315559 2.078083,-1.974729 v -1.488282 l -2.225534,-1.798339 -0.117132,-3.183269 1.030774,-0.235644 z m -10.522702,6.115734 -0.73725,-4.480002 1.813498,-3.639399 3.581522,-0.840604 0.14745,3.31556 -2.108399,1.783182 -0.02894,1.488281 2.284787,1.960949 0.264584,3.212206 -2.062923,0.07442 z m 0,0"
       id="path398"
       style="stroke-width:0.352778" /><path
       fill-rule="nonzero"
       fill="#231f20"
       fill-opacity="1"
       d="m 55.171232,32.229547 -0.574643,-1.591634 -1.533758,-0.618739 -0.220486,-2.71198 4.774903,-0.0441 v 2.844271 l -1.134124,0.544325 -0.338998,1.577854 z m 0.898479,2.696821 0.01517,3.861263 -2.107022,0.0441 -2.918682,-3.669716 -2.681665,-4.376649 -2.033983,-0.325217 -0.279742,-3.124013 4.863098,0.0441 2.815329,4.981609 z m -10.168544,1.340831 1.340831,-0.412033 0.220486,-1.488282 0.162609,-2.033984 h 1.016991 l 0.294901,2.151117 0.250804,1.371149 1.267795,0.500227 0.220486,2.711979 -4.774903,0.0441 z m 0,0"
       id="path400"
       style="stroke-width:0.352778" /><path
       fill-rule="nonzero"
       fill="#231f20"
       fill-opacity="1"
       d="m 67.922219,31.993902 -2.711979,-0.383094 -0.191548,-4.171322 3.802006,0.05926 z m 1.842435,0.647678 -0.02893,3.066135 -1.223698,0.220486 0.47129,4.362869 -0.647679,0.352778 -2.830491,-0.647678 0.31006,-4.495161 -1.001833,-1.105186 0.117133,-1.415245 z m -5.349544,-5.142838 -0.02893,3.050976 -2.064301,2.474957 0.103354,1.208539 2.461175,1.842438 -0.14745,2.711979 -2.520432,-0.118512 -3.02066,-2.490115 0.147451,-5.673383 3.861262,-3.242524 z m 0,0"
       id="path402"
       style="stroke-width:0.352778" /><path
       fill-rule="nonzero"
       fill="#231f20"
       fill-opacity="1"
       d="m 79.340641,27.571778 -0.338995,2.918685 -1.518599,0.176388 -1.798341,-1.752864 -0.05788,-1.50344 z m -2.874585,9.727572 0.118509,2.10702 -4.46622,-0.398253 0.103353,-3.403755 1.754241,0.05926 1.473122,1.605415 z m -1.502064,-9.888803 0.161233,2.961404 4.524097,3.169488 0.501607,2.888368 -0.737249,2.137338 -2.210375,0.839225 -0.01517,-3.108854 -4.568198,-3.198427 -0.913638,-1.915473 0.89848,-3.242524 z m 0,0"
       id="path404"
       style="stroke-width:0.352778" /><path
       fill-rule="nonzero"
       fill="#231f20"
       fill-opacity="1"
       d="m 88.900093,36.414649 1.369769,-0.2949 -0.117132,-1.81212 h -1.223698 l -1.562697,0.132291 0.103354,-2.181434 1.637111,0.05926 0.986673,-0.01516 0.08819,-1.84106 -1.400087,-0.560861 0.0303,-2.40192 5.880103,-0.03032 -0.05926,2.610004 -1.282954,0.249425 -0.08819,5.791895 1.1796,0.07441 0.0441,2.946246 -5.55625,0.147449 z m -2.269627,-0.2949 1.178221,0.07441 0.0441,2.946246 -5.55625,0.147449 -0.02893,-2.873209 1.371149,-0.2949 -0.206707,-3.079916 0.118512,-2.578309 -1.401466,-0.413412 0.0303,-2.54937 5.880089,-0.03032 -0.05926,2.610005 -1.281574,0.249425 z m 0,0"
       id="path406"
       style="stroke-width:0.352778" /><path
       fill-rule="nonzero"
       fill="#231f20"
       fill-opacity="1"
       d="m 118.86967,27.395389 -0.0289,2.534212 1.75287,0.796506 1.48828,0.01516 0.14745,-3.405132 z m -3.78823,5.393641 -0.0593,3.198427 -1.42903,0.398253 -0.0592,2.756077 6.04269,-0.13367 -0.0441,-2.622407 -1.48828,-0.383095 0.0882,-2.38814 -0.0138,-3.271462 0.11714,-3.02066 -3.16811,-0.03032 z m -3.75791,-2.195214 1.48966,-0.01516 1.60542,-0.795128 -0.0289,-2.535591 -3.36104,-0.05926 z m 0,0"
       id="path408"
       style="stroke-width:0.352778" /><path
       fill-rule="nonzero"
       fill="#231f20"
       fill-opacity="1"
       d="m 135.06713,35.780751 -0.0289,3.493327 3.28662,-0.413411 -0.8847,-3.271463 z m -0.22049,-3.964616 2.52044,0.516765 0.98667,-3.773069 -3.47817,-1.061089 z m -5.58518,-1.193381 -0.44236,4.539258 2.09324,3.493327 3.47817,0.603581 0.0579,-3.31556 -2.22553,-1.488281 -0.10197,-1.79834 2.09185,-1.94579 0.0593,-3.197049 -1.20854,-0.162608 z m 0,0"
       id="path410"
       style="stroke-width:0.352778" /><path
       fill-rule="nonzero"
       fill="#231f20"
       fill-opacity="1"
       d="m 140.87831,27.351292 -0.0303,2.844271 1.25264,0.264583 0.0303,2.727138 0.0592,2.785015 -1.37114,0.2949 0.0289,2.874588 h 5.7037 l -0.0441,-2.947624 -1.32705,-0.221864 0.0441,-2.87321 0.0455,-2.623785 1.28158,-0.103353 0.0592,-3.049598 z m 0,0"
       id="path412"
       style="stroke-width:0.352778" /><path
       fill-rule="nonzero"
       fill="#231f20"
       fill-opacity="1"
       d="m 149.16584,30.741266 1.48828,-0.01516 1.60679,-0.796506 -0.0289,-2.534212 -3.36103,-0.05926 z m 7.84103,-3.345877 -0.0303,2.534212 1.60679,0.796506 1.48828,0.01516 0.2949,-3.405132 z m -4.0969,0.0441 0.33762,3.198427 -0.0882,5.644444 -1.13412,0.249425 -0.0593,2.610005 5.60035,0.01378 -0.0441,-2.623785 -1.34083,-0.234266 -0.0593,-2.68304 0.1323,-3.271463 -0.0289,-3.02066 z m 0,0"
       id="path414"
       style="stroke-width:0.352778" /><path
       fill-rule="nonzero"
       fill="#231f20"
       fill-opacity="1"
       d="m 162.90488,30.327854 1.67983,0.325217 1.75424,3.241146 0.0152,2.255849 -1.31189,0.486447 0.073,2.549371 6.0868,-0.08819 -0.073,-2.476335 -1.38493,-0.618739 -0.1626,-2.83049 -2.88837,-5.702322 -4.00872,-0.07441 z m 6.11573,-0.810286 1.16444,0.766189 -0.11713,1.606792 2.66651,-1.739084 0.11851,-2.800173 -3.77307,-0.01516 z m 0,0"
       id="path416"
       style="stroke-width:0.352778" /><path
       fill-rule="nonzero"
       fill="#231f20"
       fill-opacity="1"
       d="m 103.3626,28.75 3.41892,1.785938 0.22462,3.808898 -3.00413,3.250792 -1.81763,-0.406521 -0.0923,2.437749 2.20762,0.15434 0.72071,-0.03996 3.82268,-3.380328 0.49334,-5.510774 -2.59898,-3.31556 -3.37482,-0.665593 z m -0.64767,-1.996777 -2.20486,0.02067 -3.224615,3.22461 -1.299488,4.794195 3.403755,4.211284 1.971968,0.432704 V 37.11607 l -1.18924,-0.333485 -1.632979,-3.289378 0.760677,-2.195214 3.359662,-2.202106 z m 0,0"
       id="path418"
       style="stroke-width:0.352778" /><path
       fill-rule="nonzero"
       fill="#231f20"
       fill-opacity="1"
       d="m 103.82425,33.526281 -0.0854,-1.2361 4.78179,-0.213596 0.051,1.007346 z m 0,0"
       id="path420"
       style="stroke-width:0.352778" /><path
       fill-rule="nonzero"
       fill="#231f20"
       fill-opacity="1"
       d="m 102.14304,34.251129 h 1.21956 l -0.20257,4.271918 -0.97565,-0.173632 z m 0,0"
       id="path422"
       style="stroke-width:0.352778" /><path
       fill-rule="nonzero"
       fill="#231f20"
       fill-opacity="1"
       d="m 102.75351,31.773416 -1.13688,0.09508 0.0289,-3.323828 h 1.01561 z m 0,0"
       id="path424"
       style="stroke-width:0.352778" /><path
       fill-rule="nonzero"
       fill="#231f20"
       fill-opacity="1"
       d="m 96.690143,34.325543 0.213596,-1.492416 3.948081,-0.106108 0.13643,1.092784 z m 0,0"
       id="path426"
       style="stroke-width:0.352778" /></g></svg>
